# xmcd
#
# Track frame offsets:
# 150
# 9415
# 20113
# 30945
# 43147
# 53492
# 63854
# 74969
# 85790
# 96015
# 107087
# 116606
#
# Disc length: 1680 seconds
#
#
# Revision: 0
# Processed by: cddbd v1.4PL0 Copyright (c) Steve Scherf et al.
# Submitted via: FreeRIP 2.00 
#
DISCID=97068e0c
DTITLE=George Jones - Heartaches And Tears
DYEAR=1964
DGENRE=Country
TTITLE0=I've Got A New Heartache (with Benny Barnes)
TTITLE1=Flame In My Heart (with Virginia Spurlock)
TTITLE2=You've Gotta Be My Baby
TTITLE3=You're Back Again
TTITLE4=When Two Worlds Collide (with Margie Singleton)
TTITLE5=Tender Years
TTITLE6=The Window Up Above
TTITLE7=Everything Ain't Right
TTITLE8=I Can't Help It
TTITLE9=Yearning (with Jeanette Hicks)
TTITLE10=No Use To Cry
TTITLE11=I'm With The Wrong One (with Jeanette Hicks)
EXTD=Mercury SR 60990
EXTT0=
EXTT1=
EXTT2=
EXTT3=
EXTT4=
EXTT5=
EXTT6=
EXTT7=
EXTT8=
EXTT9=
EXTT10=
EXTT11=
PLAYORDER=
